/* XPM */
static char * available_xpm[] = {
"15 15 110 2",
"  	c None",
". 	c #B4B8B9",
"+ 	c #D8D4D7",
"@ 	c #A9BBD4",
"# 	c #8A96B3",
"$ 	c #A6A6AB",
"% 	c #66717A",
"& 	c #363E47",
"* 	c #DEDFE7",
"= 	c #CCD1DD",
"- 	c #AEBDCF",
"; 	c #4F719B",
"> 	c #3C5372",
", 	c #39424A",
"' 	c #C0CDD8",
") 	c #BED3E4",
"! 	c #B9D0E4",
"~ 	c #B2C8DE",
"{ 	c #D0DDE7",
"] 	c #6B87AE",
"^ 	c #5C7292",
"/ 	c #506277",
"( 	c #2F333C",
"_ 	c #A6B9C6",
": 	c #BBD3E6",
"< 	c #E1EBF1",
"[ 	c #E3EBF0",
"} 	c #DDE6ED",
"| 	c #E9EEF1",
"1 	c #C2D2E1",
"2 	c #A6B9CD",
"3 	c #7487A4",
"4 	c #71849C",
"5 	c #546882",
"6 	c #343F57",
"7 	c #2E2F30",
"8 	c #D1DFEA",
"9 	c #ABC6DD",
"0 	c #BCCFE1",
"a 	c #D1DEE9",
"b 	c #E6ECF1",
"c 	c #8FABCC",
"d 	c #94ACC6",
"e 	c #556E91",
"f 	c #3F587E",
"g 	c #455974",
"h 	c #4A596D",
"i 	c #2F3138",
"j 	c #CDDDEA",
"k 	c #AEC6DD",
"l 	c #BCCDE0",
"m 	c #C2C8D8",
"n 	c #CBCFDD",
"o 	c #7FA0C6",
"p 	c #5B7EAD",
"q 	c #53698E",
"r 	c #536784",
"s 	c #3E5071",
"t 	c #34405A",
"u 	c #38445C",
"v 	c #A2C2DC",
"w 	c #99B0CD",
"x 	c #B3C2D7",
"y 	c #5F7DA8",
"z 	c #44577B",
"A 	c #3F4F6B",
"B 	c #536074",
"C 	c #384256",
"D 	c #313A52",
"E 	c #C8DAE7",
"F 	c #B4C6D9",
"G 	c #DCE1E4",
"H 	c #7487A1",
"I 	c #5A7089",
"J 	c #4A5465",
"K 	c #4A5160",
"L 	c #30384F",
"M 	c #C6D5DF",
"N 	c #BCD1E0",
"O 	c #E2E6EA",
"P 	c #BCC6CE",
"Q 	c #677C96",
"R 	c #788791",
"S 	c #7D868F",
"T 	c #647483",
"U 	c #30384B",
"V 	c #C0D0DF",
"W 	c #CFDBE5",
"X 	c #E6EBED",
"Y 	c #DDDFDF",
"Z 	c #CAD0D4",
"` 	c #9DA9B3",
" .	c #708292",
"..	c #4C6172",
"+.	c #435062",
"@.	c #CFDAE1",
"#.	c #C8CBCC",
"$.	c #BDBEBF",
"%.	c #979EA3",
"&.	c #303846",
"*.	c #2E2E2E",
"=.	c #B4BDC2",
"-.	c #C5C2C3",
";.	c #9DA5A7",
">.	c #6B7E86",
",.	c #9A9999",
"'.	c #AAACAD",
").	c #91999B",
"!.	c #5D6B72",
"~.	c #383E45",
"                              ",
"        . + @ # $ % &         ",
"      + * = @ - # ; > ,       ",
"    ' ) ! ~ { - ] ] ^ / (     ",
"  _ : < [ } | 1 2 3 4 5 6 7   ",
"  8 9 0 a b 8 c d e f g h i   ",
"  j k l m n o p q r s t u i   ",
"  v k w x * c y z A B C D i   ",
"  E 1 F o k } G H I J K L i   ",
"  M N j _ G O P Q R S T U 7   ",
"    V W X Y Z `  ...+.+.( i   ",
"      @.G Y #.$.%.R ..&.*.    ",
"        =.-.-.. ;.>., *.      ",
"          ;.,.'.).!.~.        ",
"                              "};
