/* XPM */
static char * available_xpm[] = {
"15 15 105 2",
"  	c None",
". 	c #A4A8A9",
"+ 	c #CFCBCE",
"@ 	c #96ACCA",
"# 	c #707FA2",
"$ 	c #939399",
"% 	c #44525D",
"& 	c #0A141E",
"* 	c #D7D8E2",
"= 	c #C1C7D6",
"- 	c #9CAEC5",
"; 	c #285285",
"> 	c #112D53",
", 	c #0E1822",
"' 	c #B2C2D0",
") 	c #B0C9DE",
"! 	c #A9C6DE",
"~ 	c #A1BCD7",
"{ 	c #C6D6E2",
"] 	c #4B6D9C",
"^ 	c #38537A",
"/ 	c #294059",
"( 	c #010611",
"_ 	c #93A9BA",
": 	c #ACC9E0",
"< 	c #DBE6EE",
"[ 	c #DDE6ED",
"} 	c #D6E0E9",
"| 	c #E4EAEE",
"1 	c #B4C8DB",
"2 	c #93AAC2",
"3 	c #556D90",
"4 	c #526986",
"5 	c #2E4766",
"6 	c #071532",
"7 	c #000103",
"8 	c #C7D8E5",
"9 	c #98B9D6",
"0 	c #ADC4DB",
"a 	c #C7D7E4",
"b 	c #E1E8EE",
"c 	c #7699C1",
"d 	c #7D9AB9",
"e 	c #304E79",
"f 	c #153361",
"g 	c #1C3455",
"h 	c #22354D",
"i 	c #01040C",
"j 	c #C2D6E5",
"k 	c #9CB9D5",
"l 	c #ADC2D9",
"m 	c #B4BCD0",
"n 	c #BFC4D5",
"o 	c #638BBA",
"p 	c #37629B",
"q 	c #2D4875",
"r 	c #2D4669",
"s 	c #132A52",
"t 	c #071636",
"u 	c #0C1B38",
"v 	c #8EB4D4",
"w 	c #839FC2",
"x 	c #A2B4CE",
"y 	c #3C6095",
"z 	c #1B325E",
"A 	c #15284A",
"B 	c #2D3D56",
"C 	c #0C1931",
"D 	c #040F2C",
"E 	c #BCD2E2",
"F 	c #A3BAD1",
"G 	c #D4DADE",
"H 	c #556D8C",
"I 	c #36506F",
"J 	c #222E43",
"K 	c #222B3D",
"L 	c #020C28",
"M 	c #BACCD8",
"N 	c #ADC7D9",
"O 	c #DCE1E5",
"P 	c #ADB9C3",
"Q 	c #465F7F",
"R 	c #5A6D79",
"S 	c #606B76",
"T 	c #425668",
"U 	c #020C23",
"V 	c #B2C6D8",
"W 	c #C4D3DF",
"X 	c #E0E6E9",
"Y 	c #D5D8D8",
"Z 	c #BEC6CB",
"` 	c #8896A2",
" .	c #51667A",
"..	c #243E53",
"+.	c #1A293F",
"@.	c #C4D2DB",
"#.	c #BCBFC1",
"$.	c #AEB0B1",
"%.	c #80898F",
"&.	c #030C1D",
"*.	c #000000",
"=.	c #A3AFB4",
"-.	c #B8B5B6",
";.	c #8B9699",
">.	c #4C646E",
"                              ",
"        . + @ # $ % &         ",
"      + * = @ - # ; > ,       ",
"    ' ) ! ~ { - ] ] ^ / (     ",
"  _ : < [ } | 1 2 3 4 5 6 7   ",
"  8 9 0 a b 8 c d e f g h i   ",
"  j k l m n o p q r s t u i   ",
"  v k w x * c y z A B C D i   ",
"  E 1 F o k } G H I J K L i   ",
"  M N j _ G O P Q R S T U 7   ",
"    V W X Y Z `  ...+.+.(     ",
"      @.G Y #.$.%.R ..&.*.    ",
"        =.-.-.. ;.>., *.      ",
"                              ",
"                              "};
