/* XPM */
static char * directory_xpm[] = {
"15 15 3 1",
" 	c None",
".	c #585825",
"+	c #EAEA62",
"               ",
" .......       ",
".+++++++.      ",
".+++++++...... ",
"........++++++.",
".+++++++++++++.",
".+++++++++++++.",
".+++++++++++++.",
".+++++++++++++.",
".+++++++++++++.",
".+++++++++++++.",
".+++++++++++++.",
".+++++++++++++.",
" ............. ",
"               "};
