/* XPM */
static char * directory_xpm[] = {
"15 15 8 1",
" 	c None",
".	c #94902B",
"+	c #B8B133",
"@	c #D3CC3B",
"#	c #848126",
"$	c #B0AA31",
"%	c #A19B2D",
"&	c #7C7823",
"               ",
" .......       ",
" .+@@@@@#      ",
" .+@@@@@$$$$$  ",
" #$$$$$$@@@@$. ",
" .$@@@@@@@@@$. ",
" %$@@@@@@@@@$. ",
" .$@@@@@@@@@$. ",
" .$@@@@@@@@@$. ",
" .$@@@@@@@@@$. ",
" .$@@@@@@@@@$. ",
" .$@@@@@@@@@$& ",
" #$@@@@@@@@@$# ",
" ############# ",
"               "};
