/* XPM */
static char * empty_xpm[] = {
"15 15 80 1",
" 	g None",
".	g #C4C4C4",
"+	g #DDDDDD",
"@	g #C5C5C5",
"#	g #A9A9A9",
"$	g #B7B7B7",
"%	g #898989",
"&	g #616161",
"*	g #E5E5E5",
"=	g #D9D9D9",
"-	g #C7C7C7",
";	g #878787",
">	g #707070",
",	g #646464",
"'	g #D4D4D4",
")	g #D7D7D7",
"!	g #D5D5D5",
"~	g #CECECE",
"{	g #E1E1E1",
"]	g #9A9A9A",
"^	g #7C7C7C",
"/	g #595959",
"(	g #C2C2C2",
"_	g #D6D6D6",
":	g #ECECEC",
"<	g #EDEDED",
"[	g #E9E9E9",
"}	g #F0F0F0",
"|	g #C3C3C3",
"1	g #9B9B9B",
"2	g #989898",
"3	g #818181",
"4	g #626262",
"5	g #555555",
"6	g #E3E3E3",
"7	g #CCCCCC",
"8	g #E2E2E2",
"9	g #EEEEEE",
"0	g #B8B8B8",
"a	g #868686",
"b	g #747474",
"c	g #757575",
"d	g #767676",
"e	g #585858",
"f	g #E0E0E0",
"g	g #CDCDCD",
"h	g #D3D3D3",
"i	g #D2D2D2",
"j	g #D8D8D8",
"k	g #ADADAD",
"l	g #919191",
"m	g #838383",
"n	g #6F6F6F",
"o	g #636363",
"p	g #666666",
"q	g #C8C8C8",
"r	g #BCBCBC",
"s	g #CBCBCB",
"t	g #656565",
"u	g #5E5E5E",
"v	g #DEDEDE",
"w	g #888888",
"x	g #737373",
"y	g #717171",
"z	g #5D5D5D",
"A	g #DADADA",
"B	g #EAEAEA",
"C	g #8B8B8B",
"D	g #DFDFDF",
"E	g #E4E4E4",
"F	g #969696",
"G	g #7B7B7B",
"H	g #C9C9C9",
"I	g #AFAFAF",
"J	g #B4B4B4",
"K	g #929292",
"L	g #ACACAC",
"M	g #BBBBBB",
"N	g #AAAAAA",
"O	g #848484",
"               ",
"    .+@#$%&    ",
"   +*=@-#;>,   ",
"  ')!~{-]]%^/  ",
" (_:<[})|12345 ",
" 67!896$0abcde ",
" fghijklm3nope ",
" qgrs*$lcn^tue ",
" v)gkg[*1wxyze ",
" A_f(*B~l]1Cz5 ",
"  _D<E)$FGnn/e ",
"   D*E'HI]Gz5  ",
"    -~~.JK,5   ",
"     JLMNO&    ",
"               "};
