/* XPM */
static char * help_xpm[] = {
"14 15 44 1",
" 	c None",
".	c #22220E",
"+	c #585825",
"@	c #5C5C26",
"#	c #EAEA62",
"$	c #E7E761",
"%	c #D0D057",
"&	c #D5D559",
"*	c #ABAB48",
"=	c #2A2A12",
"-	c #0C0C05",
";	c #0F0F06",
">	c #575724",
",	c #E2E25F",
"'	c #6F6F2E",
")	c #4F4F21",
"!	c #8E8E3B",
"~	c #45451D",
"{	c #000000",
"]	c #9A9A41",
"^	c #DBDB5C",
"/	c #92923D",
"(	c #95953E",
"_	c #C0C050",
":	c #141409",
"<	c #383817",
"[	c #DDDD5D",
"}	c #D8D85A",
"|	c #1D1D0C",
"1	c #313114",
"2	c #D7D75A",
"3	c #A5A545",
"4	c #999940",
"5	c #B7B74C",
"6	c #49491F",
"7	c #B9B94D",
"8	c #BFBF50",
"9	c #616129",
"0	c #C0C051",
"a	c #9F9F43",
"b	c #A3A344",
"c	c #DCDC5C",
"d	c #BEBE50",
"e	c #DDDD5C",
".++++++++++++.",
"@############@",
"@####$%&#####@",
"@###*=-;>,###@",
"@###')!~{]###@",
"@###^##/{(###@",
"@#####_:<[###@",
"@####}|12####@",
"@####3{4#####@",
"@####567#####@",
"@####890#####@",
"@####a{b#####@",
"@####cde#####@",
"@############@",
".++++++++++++."};
