/* XPM */
static char * ocs_xpm[] = {
"15 15 12 1",
" 	c None",
".	c #000000",
"+	c #E2DB8A",
"@	c #232B1F",
"#	c #606044",
"$	c #919062",
"%	c #252C21",
"&	c #4C4C4C",
"*	c #A3A270",
"=	c #B7B67B",
"-	c #232A1F",
";	c #22281E",
"               ",
"               ",
"  ...........  ",
"  .+++++++++.  ",
"  @+###$$##+%  ",
"  &+++++++++&  ",
"  &+$$$*$**+&  ",
"  &+++++++++&  ",
"  &+****=*++&  ",
"  &+++++++++&  ",
"  -+===+=+++;  ",
"  .+++++++++.  ",
"  ...........  ",
"               ",
"               "};
