/* XPM */
static char * read_xpm[] = {
"15 15 10 1",
" 	c None",
".	c #000000",
"+	c #21271D",
"@	c #4C4C4C",
"#	c #222A1F",
"$	c #232B1F",
"%	c #252C21",
"&	c #232A1F",
"*	c #22281E",
"=	c #23291F",
"               ",
"               ",
"               ",
"   .+@@@@@#.   ",
"   $       %   ",
"   @       @   ",
"   @       @   ",
"   @       @   ",
"   @       @   ",
"   @       @   ",
"   &       *   ",
"   .=@@@@@&.   ",
"               ",
"               ",
"               "};
