/* XPM */
static char * unavailable_xpm[] = {
"15 15 2 1",
" 	c None",
".	c #F42929",
"               ",
"               ",
"               ",
"  ..       ..  ",
"   ..     ..   ",
"    ..   ..    ",
"     .. ..     ",
"      ...      ",
"      ...      ",
"     .. ..     ",
"    ..   ..    ",
"   ..     ..   ",
"  ..       ..  ",
"               ",
"               "};
