/* XPM */
static char * unread_xpm[] = {
"15 15 70 1",
" 	c None",
".	c #000000",
"+	c #433426",
"@	c #747F36",
"#	c #8A9942",
"$	c #97A845",
"%	c #91A241",
"&	c #7C8839",
"*	c #4A3A2B",
"=	c #828E3D",
"-	c #A4C051",
";	c #CCEB6E",
">	c #E3F87F",
",	c #DCF178",
"'	c #B7D15C",
")	c #82913E",
"!	c #47382A",
"~	c #747E35",
"{	c #CBF469",
"]	c #FDFEB1",
"^	c #FBFDC8",
"/	c #FDFEED",
"(	c #FCFEE9",
"_	c #FDFDD4",
":	c #BBE463",
"<	c #767E35",
"[	c #869540",
"}	c #C9EC6B",
"|	c #F8FEB7",
"1	c #FDFEF9",
"2	c #FFFFFF",
"3	c #FDFEF7",
"4	c #DDF182",
"5	c #87943F",
"6	c #8D9D44",
"7	c #D6F372",
"8	c #FBFEC5",
"9	c #FDFEFB",
"0	c #FDFEFD",
"a	c #EAF998",
"b	c #8B9D42",
"c	c #83903D",
"d	c #DAF774",
"e	c #FCFDE8",
"f	c #EFFA93",
"g	c #82913C",
"h	c #6E7732",
"i	c #A9C954",
"j	c #E5FA85",
"k	c #F0FD98",
"l	c #F9FDC0",
"m	c #FAFDCA",
"n	c #F9FCA7",
"o	c #A6C251",
"p	c #727932",
"q	c #413326",
"r	c #798237",
"s	c #99AD48",
"t	c #B0CD56",
"u	c #BFDD62",
"v	c #B8D65F",
"w	c #9CB34A",
"x	c #798336",
"y	c #443527",
"z	c #403125",
"A	c #69702F",
"B	c #7F893A",
"C	c #7B8637",
"D	c #6F7631",
"E	c #413426",
"               ",
"               ",
"               ",
"   .+@#$%&*.   ",
"   +=-;>,')!   ",
"   ~{]^/(_:<   ",
"   [}|122345   ",
"   6789220ab   ",
"   cd/e022fg   ",
"   hijklmnop   ",
"   qrstuvwxy   ",
"   .zAxBCDE.   ",
"               ",
"               ",
"               "};
