/* XPM */
static char * vfolder_xpm[] = {
"15 15 143 2",
"  	c None",
". 	c #696A69",
"+ 	c #707270",
"@ 	c #646464",
"# 	c #6F6F6F",
"$ 	c #4B4C4B",
"% 	c #787978",
"& 	c #AFAFAF",
"* 	c #BEBDBE",
"= 	c #C0C0C0",
"- 	c #B8B7B7",
"; 	c #969696",
"> 	c #595B59",
", 	c #828687",
"' 	c #83888E",
") 	c #626362",
"! 	c #C2C3C2",
"~ 	c #E7E5E6",
"{ 	c #EBEBF0",
"] 	c #E0E3EA",
"^ 	c #CAD5E5",
"/ 	c #CDD6E1",
"( 	c #A8A6A4",
"_ 	c #373937",
": 	c #858B90",
"< 	c #5E5F5E",
"[ 	c #BCBCBC",
"} 	c #D8E0E7",
"| 	c #D7E4EE",
"1 	c #D0DDEB",
"2 	c #E2EAF0",
"3 	c #A4B5CD",
"4 	c #818381",
"5 	c #626468",
"6 	c #939EAB",
"7 	c #7F8187",
"8 	c #585958",
"9 	c #C8D4DC",
"0 	c #D5E4F0",
"a 	c #EEF3F6",
"b 	c #EBF0F4",
"c 	c #F1F5F6",
"d 	c #D9E3ED",
"e 	c #C8D4E0",
"f 	c #47494C",
"g 	c #96A2B2",
"h 	c #828998",
"i 	c #7E7F80",
"j 	c #51504F",
"k 	c #E3EBF2",
"l 	c #CBDCEA",
"m 	c #DAE3ED",
"n 	c #E5ECF1",
"o 	c #BACBE0",
"p 	c #BDCCDC",
"q 	c #96A6BB",
"r 	c #393E41",
"s 	c #8C99A9",
"t 	c #9099A5",
"u 	c #7F8084",
"v 	c #525252",
"w 	c #BEBDBD",
"x 	c #CDDCE9",
"y 	c #D8E1EB",
"z 	c #DCDFE8",
"A 	c #E2E3EB",
"B 	c #B9CBDF",
"C 	c #A1B5CF",
"D 	c #95A3B9",
"E 	c #95A1B3",
"F 	c #4D5054",
"G 	c #828999",
"H 	c #848C9B",
"I 	c #353335",
"J 	c #818180",
"K 	c #CDDBE9",
"L 	c #C0CEE0",
"M 	c #D0D9E5",
"N 	c #9CAFC9",
"O 	c #8C98AE",
"P 	c #6D6B6A",
"Q 	c #787879",
"R 	c #848B97",
"S 	c #808694",
"T 	c #484A49",
"U 	c #868786",
"V 	c #D1DCE8",
"W 	c #B0C5DC",
"X 	c #CDDCEA",
"Y 	c #EAF0F4",
"Z 	c #E9EDEE",
"` 	c #7B7A7B",
" .	c #252624",
"..	c #727375",
"+.	c #90949D",
"@.	c #808493",
"#.	c #DCE5EB",
"$.	c #737A7C",
"%.	c #666867",
"&.	c #8B898A",
"*.	c #979897",
"=.	c #848484",
"-.	c #626464",
";.	c #4A4E50",
">.	c #111211",
",.	c #191C19",
"'.	c #A0A9B3",
").	c #808490",
"!.	c #D8E2EB",
"~.	c #E1E9EF",
"{.	c #4E4F4E",
"].	c #C3CAD0",
"^.	c #A7B2BC",
"/.	c #3B3B3B",
"(.	c #333533",
"_.	c #101310",
":.	c #E1E8ED",
"<.	c #EAEBEB",
"[.	c #DDDFE0",
"}.	c #D6D7D8",
"|.	c #BFC3C6",
"1.	c #ACB5BB",
"2.	c #3A3B3C",
"3.	c #484848",
"4.	c #070807",
"5.	c #D1D6D9",
"6.	c #DBD9DA",
"7.	c #D1D3D4",
"8.	c #C3C8C9",
"9.	c #A4B0B5",
"0.	c #2C2D2C",
"a.	c #3E3F3E",
"b.	c #181918",
"c.	c #C1C0C0",
"d.	c #CBCCCD",
"e.	c #BBC0C1",
"f.	c #9BA4A8",
"g.	c #84888C",
"h.	c #252425",
"i.	c #363736",
"j.	c #080908",
"k.	c #1D1D1D",
"l.	c #151615",
"      . + @ # $               ",
"    % & * = - ; > , '         ",
"  ) ! ~ { ] ^ / ( _   :       ",
"< [ } | | 1 2 / 3 4 5 6 7     ",
"8 9 0 a a b c d e   f g h i   ",
"j k l m n   k o p q r s t u   ",
"v w x y z A B C D E F G H u   ",
"I J K L M { o N O P Q R S u   ",
"  T U V W X Y Z `  ...+.@.u   ",
"  #.$.%.&.*.=.-.;.>.,.'.).i   ",
"    !.~.{.{.{.].^./.(._.7 u   ",
"      :.Z <.[.}.|.1.2.3.4.    ",
"        5.6.6.7.8.9.: 0.a.b.  ",
"          8.c.d.e.f.g.  h.i.j.",
"                          k.l."};
